<svg width="16" height="16" viewBox="0 0 16 16" fill="none" xmlns="http://www.w3.org/2000/svg">
<path d="M15 7.98678C15.0071 11.8436 11.8618 14.9973 8.00507 15C6.33933 15.0012 4.80927 14.4205 3.60688 13.4501C3.29422 13.1977 3.27085 12.7292 3.55497 12.445L3.87299 12.127C4.11599 11.884 4.50392 11.8574 4.77314 12.071C5.659 12.774 6.7801 13.1936 7.99999 13.1936C10.8707 13.1936 13.1935 10.8703 13.1935 8.00001C13.1935 5.1293 10.8702 2.80646 7.99999 2.80646C6.62218 2.80646 5.37079 3.34187 4.44163 4.21583L5.8742 5.6484C6.15871 5.93292 5.95721 6.41936 5.55488 6.41936H1.45161C1.20218 6.41936 1 6.21718 1 5.96775V1.86447C1 1.46214 1.48644 1.26064 1.77096 1.54513L3.16452 2.93869C4.42122 1.73771 6.12445 1 7.99999 1C11.8616 1 14.9928 4.12686 15 7.98678ZM9.89361 10.2105L10.1709 9.85403C10.4006 9.5587 10.3474 9.13308 10.052 8.90341L8.90322 8.00986V5.06452C8.90322 4.69039 8.59993 4.3871 8.2258 4.3871H7.77419C7.40005 4.3871 7.09677 4.69039 7.09677 5.06452V8.89339L8.94299 10.3294C9.23832 10.559 9.6639 10.5058 9.89361 10.2105Z" fill="url(#paint0_linear_126_4283)"/>
<defs>
<linearGradient id="paint0_linear_126_4283" x1="-1.18101" y1="-26.2125" x2="37.0208" y2="-15.37" gradientUnits="userSpaceOnUse">
<stop stop-color="#C2A18C"/>
<stop offset="0.1756" stop-color="#BD9B86"/>
<stop offset="0.3165" stop-color="#B4927B"/>
<stop offset="0.4888" stop-color="#AD8977"/>
<stop offset="0.6955" stop-color="#684A59"/>
<stop offset="1" stop-color="#53364B"/>
</linearGradient>
</defs>
</svg>
