<svg width="16" height="16" viewBox="0 0 16 16" fill="none" xmlns="http://www.w3.org/2000/svg">
<g clip-path="url(#clip0_126_939)">
<path d="M4.64746 0.107422C4.91754 0.140991 5.10331 0.279165 5.17188 0.333008C5.27706 0.415635 5.36177 0.509144 5.42285 0.583008C5.54791 0.73427 5.67088 0.922194 5.7832 1.10938C6.01263 1.49176 6.2668 1.98827 6.49902 2.47852C6.73271 2.97187 6.95472 3.48067 7.12012 3.89746C7.20236 4.10473 7.27423 4.2985 7.32715 4.46094C7.3534 4.54154 7.37827 4.62465 7.39746 4.70312C7.41206 4.76284 7.44134 4.88894 7.44141 5.02832C7.44141 5.4542 7.28295 5.81852 7.12012 6.09277C6.95666 6.36802 6.74806 6.62024 6.56445 6.83008C6.35291 7.07185 6.21033 7.22007 6.04004 7.42188C5.88399 7.60682 5.78779 7.74379 5.73535 7.84863C5.73382 7.85169 5.67334 7.90351 5.84473 8.17773C6.03094 8.47558 6.35047 8.80164 6.77539 9.22656C6.93306 9.38423 7.28131 9.73065 7.66602 9.99023C7.85935 10.1207 8.01926 10.2 8.13379 10.2334C8.1591 10.2408 8.17855 10.242 8.19141 10.2441C8.29059 10.1886 8.41728 10.0993 8.58008 9.96191C8.78189 9.79162 8.93011 9.64905 9.17188 9.4375C9.38171 9.2539 9.63393 9.04529 9.90918 8.88184C10.1834 8.719 10.5478 8.56055 10.9736 8.56055L11.0742 8.56543C11.1714 8.57435 11.254 8.59352 11.2988 8.60449C11.3773 8.62369 11.4604 8.64855 11.541 8.6748C11.7035 8.72773 11.8972 8.79959 12.1045 8.88184C12.5213 9.04723 13.0301 9.26925 13.5234 9.50293C14.0137 9.73515 14.5102 9.98932 14.8926 10.2188C15.0798 10.3311 15.2677 10.454 15.4189 10.5791C15.4928 10.6402 15.5863 10.7249 15.6689 10.8301C15.7304 10.9084 15.9023 11.1396 15.9023 11.4746C15.9023 13.5601 14.3558 15.0562 12.8691 15.5518C12.2016 15.7743 11.5995 15.9004 10.9229 15.9004C10.2607 15.9004 9.57333 15.7796 8.74023 15.5713C7.91884 15.3659 7.12579 15.1431 6.26953 14.6865C5.41368 14.2301 4.53767 13.5631 3.48828 12.5137C2.43889 11.4643 1.77188 10.5883 1.31543 9.73242C0.858833 8.87616 0.636017 8.08312 0.430664 7.26172C0.222389 6.42862 0.101562 5.74128 0.101562 5.0791C0.101567 4.40243 0.227703 3.80033 0.450195 3.13281C0.945748 1.64616 2.44181 0.0996094 4.52734 0.0996094L4.64746 0.107422ZM4.17285 1.92969C3.20108 2.08685 2.43548 2.87033 2.1582 3.70215C1.9779 4.24309 1.90235 4.64798 1.90234 5.0791C1.90234 5.52484 1.98215 6.04678 2.17676 6.8252C2.37421 7.615 2.55538 8.23151 2.9043 8.88574C3.2536 9.54066 3.79577 10.2762 4.76074 11.2412C5.72571 12.2062 6.46129 12.7484 7.11621 13.0977C7.77044 13.4466 8.38695 13.6277 9.17676 13.8252C9.95517 14.0198 10.4771 14.0996 10.9229 14.0996C11.354 14.0996 11.7589 14.0241 12.2998 13.8438C13.1319 13.5664 13.9144 12.8003 14.0713 11.8281C14.0395 11.808 14.0047 11.785 13.9658 11.7617C13.6558 11.5757 13.2194 11.3508 12.7529 11.1299C12.2897 10.9105 11.8166 10.7039 11.4404 10.5547C11.2515 10.4797 11.0962 10.4225 10.9834 10.3857C10.9683 10.3808 10.9546 10.3768 10.9424 10.373C10.9178 10.3826 10.8799 10.399 10.8281 10.4297C10.7008 10.5054 10.5501 10.6234 10.3574 10.792C10.1964 10.9328 9.94113 11.1684 9.74023 11.3379C9.52237 11.5217 9.25596 11.728 8.95801 11.877C8.48206 12.1148 7.9966 12.0675 7.63086 11.9609C7.26574 11.8546 6.92998 11.6651 6.65918 11.4824C6.11555 11.1156 5.65845 10.6565 5.50195 10.5C5.12131 10.1194 4.63577 9.63956 4.31836 9.13184C3.9862 8.60038 3.72389 7.84652 4.125 7.04395C4.27398 6.74599 4.48025 6.47958 4.66406 6.26172C4.83357 6.06082 5.06911 5.80551 5.20996 5.64453C5.37852 5.45187 5.4966 5.30119 5.57227 5.17383C5.60322 5.12169 5.61842 5.08316 5.62793 5.05859C5.62423 5.04667 5.62096 5.03313 5.61621 5.01855C5.57947 4.90576 5.52225 4.75049 5.44727 4.56152C5.29801 4.18539 5.09147 3.71223 4.87207 3.24902C4.65111 2.78255 4.42625 2.34618 4.24023 2.03613C4.21664 1.9968 4.19318 1.96177 4.17285 1.92969Z" fill="url(#paint0_linear_126_939)"/>
</g>
<defs>
<linearGradient id="paint0_linear_126_939" x1="-2.35999" y1="-30.6132" x2="40.7556" y2="-18.376" gradientUnits="userSpaceOnUse">
<stop stop-color="#C2A18C"/>
<stop offset="0.1756" stop-color="#BD9B86"/>
<stop offset="0.3165" stop-color="#B4927B"/>
<stop offset="0.4888" stop-color="#AD8977"/>
<stop offset="0.6955" stop-color="#684A59"/>
<stop offset="1" stop-color="#53364B"/>
</linearGradient>
<clipPath id="clip0_126_939">
<rect width="16" height="16" fill="white"/>
</clipPath>
</defs>
</svg>
